<svg width="44" height="44" viewBox="0 0 44 44" fill="none" xmlns="http://www.w3.org/2000/svg">
<rect width="44" height="44" rx="8" fill="#FE4F31"/>
<path d="M31.0002 22.0004C29.6869 22.0004 26.0642 21.5051 22.8221 22.9288C19.3001 24.4755 16.7497 26.8746 15.6384 28.3667" stroke="white" stroke-linecap="round" stroke-linejoin="round"/>
<path d="M18.625 13.6543C20.0337 14.9543 23.1072 18.2645 24.25 21.5502C25.3929 24.8358 25.8165 28.8758 26.0773 30.0258" stroke="white" stroke-linecap="round" stroke-linejoin="round"/>
<path d="M13.0693 20.8755C14.7693 20.978 19.2697 21.0705 22.1498 19.8405C25.0298 18.6105 27.5081 16.3483 28.3581 15.6309" stroke="white" stroke-linecap="round" stroke-linejoin="round"/>
<path d="M22 31C26.9706 31 31 26.9706 31 22C31 17.0294 26.9706 13 22 13C17.0294 13 13 17.0294 13 22C13 26.9706 17.0294 31 22 31Z" stroke="white" stroke-linecap="round" stroke-linejoin="round"/>
</svg>
