<svg width="24" height="24" viewBox="0 0 24 24" fill="none" xmlns="http://www.w3.org/2000/svg">
<path d="M15.1722 15.2987C16.3741 15.0494 17.4646 14.6172 18.3123 13.9827C19.7601 12.899 20.5 11.2254 20.5 9.57192C20.5 8.41196 20.0593 7.329 19.2964 6.41176C18.8713 5.90064 20.1148 2.5396 19.01 3.05321C17.9053 3.56682 16.2854 4.25113 15.4363 4.00023C14.5273 3.73161 13.5366 3.58403 12.5 3.58403C11.5996 3.58403 10.734 3.69536 9.9263 3.90064C8.7523 4.19903 7.62955 3.53758 6.5 3.05321C5.37043 2.56884 5.9868 6.06067 5.6513 6.47548C4.92059 7.37895 4.5 8.43866 4.5 9.57192C4.5 11.2254 5.39543 12.899 6.84315 13.9827C7.80755 14.7044 9.017 15.1645 10.3701 15.3912" stroke="#303030" stroke-linecap="round" stroke-linejoin="round"/>
<path d="M10.3701 15.3916C9.79087 16.0279 9.50122 16.6321 9.50122 17.2042C9.50122 17.7763 9.50122 18.6729 9.50122 21.0003" stroke="#303030" stroke-linecap="round" stroke-linejoin="round"/>
<path d="M15.1721 15.2988C15.721 16.0178 15.9955 16.6633 15.9955 17.2354C15.9955 17.8076 15.9955 18.6937 15.9955 21.0002" stroke="#303030" stroke-linecap="round" stroke-linejoin="round"/>
<path d="M3.5 15.668C3.94943 15.7228 4.28277 15.929 4.5 16.2867C4.82584 16.823 6.0371 18.8129 7.41255 18.8129C8.32955 18.8129 9.02575 18.8129 9.5012 18.8129" stroke="#303030" stroke-linecap="round" stroke-linejoin="round"/>
</svg>
