<svg width="24" height="24" viewBox="0 0 24 24" fill="none" xmlns="http://www.w3.org/2000/svg">
<path d="M21.0002 12.0004C19.6869 12.0004 16.0642 11.5051 12.8221 12.9288C9.30011 14.4755 6.74967 16.8746 5.63843 18.3667" stroke="white" stroke-linecap="round" stroke-linejoin="round"/>
<path d="M8.625 3.6543C10.0337 4.95431 13.1072 8.26446 14.25 11.5502C15.3929 14.8358 15.8165 18.8758 16.0773 20.0258" stroke="white" stroke-linecap="round" stroke-linejoin="round"/>
<path d="M3.06934 10.8755C4.76934 10.978 9.26974 11.0705 12.1498 9.8405C15.0298 8.6105 17.5081 6.34834 18.3581 5.63086" stroke="white" stroke-linecap="round" stroke-linejoin="round"/>
<path d="M12 21C16.9706 21 21 16.9706 21 12C21 7.02944 16.9706 3 12 3C7.02944 3 3 7.02944 3 12C3 16.9706 7.02944 21 12 21Z" stroke="white" stroke-linecap="round" stroke-linejoin="round"/>
</svg>
