<svg width="44" height="44" viewBox="0 0 44 44" fill="none" xmlns="http://www.w3.org/2000/svg">
<rect width="44" height="44" rx="8" fill="white"/>
<path d="M25.4621 21.4866C25.5701 22.2148 25.4457 22.9585 25.1067 23.612C24.7676 24.2654 24.2311 24.7953 23.5736 25.1263C22.916 25.4573 22.1708 25.5725 21.444 25.4555C20.7171 25.3386 20.0457 24.9954 19.5251 24.4749C19.0046 23.9543 18.6614 23.2829 18.5445 22.556C18.4275 21.8292 18.5427 21.084 18.8737 20.4264C19.2047 19.7689 19.7346 19.2324 20.388 18.8933C21.0415 18.5543 21.7852 18.4299 22.5134 18.5379C23.2562 18.648 23.9439 18.9941 24.4749 19.5251C25.0059 20.0561 25.352 20.7438 25.4621 21.4866Z" stroke="#303030" stroke-linecap="round" stroke-linejoin="round"/>
<path d="M27 16.5H27.5" stroke="#303030" stroke-linecap="round" stroke-linejoin="round"/>
<path d="M13 19.4C13 17.1598 13 16.0397 13.436 15.184C13.8195 14.4314 14.4314 13.8195 15.184 13.436C16.0397 13 17.1598 13 19.4 13H24.6C26.8402 13 27.9603 13 28.816 13.436C29.5686 13.8195 30.1805 14.4314 30.564 15.184C31 16.0397 31 17.1598 31 19.4V24.6C31 26.8402 31 27.9603 30.564 28.816C30.1805 29.5686 29.5686 30.1805 28.816 30.564C27.9603 31 26.8402 31 24.6 31H19.4C17.1598 31 16.0397 31 15.184 30.564C14.4314 30.1805 13.8195 29.5686 13.436 28.816C13 27.9603 13 26.8402 13 24.6V19.4Z" stroke="#303030" stroke-linecap="round" stroke-linejoin="round"/>
</svg>
