<svg width="44" height="44" viewBox="0 0 44 44" fill="none" xmlns="http://www.w3.org/2000/svg">
<rect width="44" height="44" rx="8" fill="white"/>
<path d="M25.1722 25.2987C26.3741 25.0494 27.4646 24.6172 28.3123 23.9827C29.7601 22.899 30.5 21.2254 30.5 19.5719C30.5 18.412 30.0593 17.329 29.2964 16.4118C28.8713 15.9006 30.1148 12.5396 29.01 13.0532C27.9053 13.5668 26.2854 14.2511 25.4363 14.0002C24.5273 13.7316 23.5366 13.584 22.5 13.584C21.5996 13.584 20.734 13.6954 19.9263 13.9006C18.7523 14.199 17.6295 13.5376 16.5 13.0532C15.3704 12.5688 15.9868 16.0607 15.6513 16.4755C14.9206 17.379 14.5 18.4387 14.5 19.5719C14.5 21.2254 15.3954 22.899 16.8432 23.9827C17.8076 24.7044 19.017 25.1645 20.3701 25.3912" stroke="#303030" stroke-linecap="round" stroke-linejoin="round"/>
<path d="M20.3701 25.3916C19.7909 26.0279 19.5012 26.6321 19.5012 27.2042C19.5012 27.7763 19.5012 28.6729 19.5012 31.0003" stroke="#303030" stroke-linecap="round" stroke-linejoin="round"/>
<path d="M25.1721 25.2988C25.721 26.0178 25.9955 26.6633 25.9955 27.2354C25.9955 27.8076 25.9955 28.6937 25.9955 31.0002" stroke="#303030" stroke-linecap="round" stroke-linejoin="round"/>
<path d="M13.5 25.668C13.9494 25.7228 14.2828 25.929 14.5 26.2867C14.8258 26.823 16.0371 28.8129 17.4125 28.8129C18.3295 28.8129 19.0257 28.8129 19.5012 28.8129" stroke="#303030" stroke-linecap="round" stroke-linejoin="round"/>
</svg>
